<svg width="31" height="31" viewBox="0 0 31 31" fill="none" xmlns="http://www.w3.org/2000/svg">
<g opacity="0.6">
<path d="M17.3252 9.68633C17.1983 9.68633 17.0715 9.66519 16.9446 9.63348C16.2468 9.42207 15.845 8.68212 16.0564 7.98445L18.1711 0.94436C18.3825 0.246693 19.1226 -0.154993 19.8205 0.056421C20.5183 0.267835 20.9201 1.00779 20.7086 1.70545L18.594 8.74554C18.4142 9.31636 17.8856 9.68633 17.3252 9.68633Z" fill="#8D95FF"/>
<path d="M11.0635 30.4998C10.9366 30.4998 10.8097 30.4787 10.6828 30.447C9.98502 30.2355 9.58325 29.4956 9.79472 28.7979L11.9093 21.7578C12.1208 21.0602 12.8609 20.6585 13.5588 20.8699C14.2566 21.0813 14.6583 21.8213 14.4469 22.5189L12.3323 29.559C12.1525 30.1298 11.6239 30.4998 11.0635 30.4998Z" fill="#8D95FF"/>
<path d="M21.5842 13.1643C21.1084 13.1643 20.6538 12.9106 20.4212 12.4666C20.0723 11.8218 20.3155 11.0184 20.9604 10.6802L27.4417 7.20239C28.0867 6.85356 28.8902 7.09668 29.2286 7.7415C29.5669 8.38631 29.3343 9.18968 28.6893 9.52795L22.208 13.0057C22.0071 13.1114 21.7957 13.1643 21.5842 13.1643Z" fill="#8D95FF"/>
<path d="M2.43578 23.4601C1.95999 23.4601 1.50535 23.2064 1.27274 22.7625C0.923827 22.1177 1.16701 21.3143 1.81196 20.976L8.29328 17.4983C8.93824 17.1494 9.74179 17.3926 10.0801 18.0374C10.429 18.6822 10.1859 19.4856 9.54091 19.8238L3.0596 23.3016C2.86928 23.4073 2.64724 23.4601 2.43578 23.4601Z" fill="#8D95FF"/>
<path d="M29.1755 20.7538C29.0486 20.7538 28.9217 20.7326 28.7949 20.7009L21.7532 18.5868C21.0554 18.3754 20.6536 17.6354 20.865 16.9377C21.0765 16.2401 21.8166 15.8384 22.5144 16.0498L29.5561 18.1639C30.2539 18.3754 30.6557 19.1153 30.4443 19.813C30.2751 20.3838 29.7464 20.7538 29.1755 20.7538Z" fill="#8D95FF"/>
<path d="M8.36689 14.496C8.24001 14.496 8.11314 14.4748 7.98626 14.4431L0.944577 12.329C0.246752 12.1175 -0.155029 11.3776 0.0564335 10.6799C0.267896 9.98226 1.00801 9.58057 1.70584 9.79199L8.74752 11.9061C9.44534 12.1175 9.84712 12.8575 9.63566 13.5552C9.45592 14.126 8.92726 14.496 8.36689 14.496Z" fill="#8D95FF"/>
<path d="M22.1331 29.3792C21.6573 29.3792 21.2026 29.1255 20.97 28.6816L17.4915 22.2017C17.1426 21.5569 17.3857 20.7535 18.0307 20.4153C18.6757 20.0664 19.4792 20.3096 19.8176 20.9544L23.2961 27.4342C23.645 28.079 23.4019 28.8824 22.7569 29.2207C22.5666 29.3264 22.3445 29.3792 22.1331 29.3792Z" fill="#8D95FF"/>
<path d="M11.844 10.2357C11.3682 10.2357 10.9136 9.98199 10.681 9.53802L7.20243 3.05817C6.85351 2.41336 7.09669 1.60999 7.74165 1.27173C8.38661 0.922893 9.19017 1.16602 9.52851 1.81083L13.007 8.29067C13.356 8.93549 13.1128 9.73886 12.4678 10.0771C12.2669 10.1828 12.0555 10.2357 11.844 10.2357Z" fill="#8D95FF"/>
</g>
</svg>
