<svg width="158" height="29" viewBox="0 0 158 29" fill="none" xmlns="http://www.w3.org/2000/svg">
<path d="M16.4821 4.44663C16.4821 3.57237 16.2266 2.70704 15.7509 1.97552C15.2751 1.244 14.6055 0.673054 13.8126 0.334056C13.0285 0.00398038 12.1562 -0.0763084 11.3104 0.0931901C10.4735 0.27161 9.69814 0.699817 9.09903 1.32428C8.64089 1.78818 8.29728 2.3502 8.07703 2.96574C7.85677 3.58129 7.77747 4.24144 7.83915 4.9016C7.90082 5.55283 8.10346 6.18622 8.43825 6.74824C8.77305 7.31026 9.21357 7.79199 9.751 8.15775C10.3413 8.5592 11.0197 8.80898 11.7245 8.88035C12.4294 8.95172 13.143 8.84467 13.8038 8.56812C14.3324 8.33617 14.8082 8.0061 15.2046 7.57789C16.024 6.74824 16.4821 5.61527 16.4821 4.44663Z" fill="#5152FB"/>
<path d="M2.65857 11.5031L10.3677 25.2057C11.3368 26.9632 12.9755 26.9632 13.9535 25.2057L17.3367 19.1752C12.5174 20.3795 5.38979 16.3561 2.65857 11.5031Z" fill="#FDBC42"/>
<path d="M22.6321 4.44629C20.9846 4.44629 18.9758 5.96285 18.1653 7.81842C18.1653 7.81842 16.2886 12.1272 12.1566 12.1272C10.7381 12.1272 9.36369 11.6009 8.28882 10.6464C9.64562 12.3324 14.2711 15.9811 21.1079 12.4752L23.8215 7.65784C24.8171 5.88257 24.2709 4.44629 22.6321 4.44629Z" fill="#5152FB"/>
<path d="M8.2885 10.6382C7.39865 9.85314 6.66739 8.88968 6.15638 7.81024C5.34583 5.95468 3.33706 4.43811 1.69833 4.43811C0.0419741 4.44703 -0.49546 5.88331 0.500114 7.64966L2.65866 11.4946C5.38988 16.3476 12.5175 20.3799 17.3544 19.1666L21.1164 12.4759C14.2619 15.9819 9.6453 12.3332 8.2885 10.6382Z" fill="#FA4769"/>
<path d="M43.2323 22.4182V9.84616C43.2323 8.93334 42.4184 8.20723 41.7064 8.20723H40.4653V17.9993C40.2618 17.5221 39.9363 16.6716 39.6515 16.0907L37.21 11.1117C36.2742 9.20304 35.0941 8.20723 33.2631 8.20723H31.8796V20.551C31.8796 21.7958 32.7544 22.4182 33.5682 22.4182H34.6669V11.9622C34.911 12.2942 35.2162 12.8336 35.6028 13.6219L38.1459 18.6632C39.8753 22.0862 41.0553 22.4182 42.1336 22.4182H43.2323Z" fill="black"/>
<path d="M54.4929 18.6009V16.0284C54.4929 12.1697 52.2956 11.0079 49.8542 11.0079C46.9651 11.0079 45.8665 12.5016 45.8665 13.7464V14.6385H45.9682C46.3751 14.1198 47.4738 13.3522 49.4473 13.3522C51.0749 13.3522 51.8073 13.8294 51.8073 15.4061V15.5513H50.8511C46.8227 15.5513 45.3986 17.0657 45.3986 19.0573C45.3986 21.1112 47.1889 22.6049 49.7931 22.6049H50.3425C52.7839 22.6049 54.4929 20.966 54.4929 18.6009ZM51.8277 18.6217C51.8277 19.7627 51.258 20.3436 50.078 20.3436C48.8776 20.3436 48.1859 19.8249 48.1859 18.9536C48.1859 18.0408 48.7759 17.5429 50.8511 17.5429H51.8277V18.6217Z" fill="black"/>
<path d="M56.7573 11.6718V18.3935C56.7573 21.0075 58.1001 22.5427 60.867 22.5427C62.454 22.5427 63.2678 21.8166 63.2678 20.6755V19.6797H63.166C62.7388 19.9494 62.0674 20.0739 61.1925 20.0739C60.0939 20.0739 59.4632 19.5138 59.4632 18.0615V13.6842H61.6401C62.7591 13.6842 63.2678 12.9373 63.2678 12.3564V11.2154H59.4632V8.68439H58.8325C58.4052 8.68439 57.917 9.01632 57.5507 9.45199C56.9607 10.1573 56.7573 10.5723 56.7573 11.6718Z" fill="black"/>
<path d="M68.1969 8.78812C68.1969 7.89604 67.4645 7.16994 66.5896 7.16994C65.7148 7.16994 65.0027 7.89604 65.0027 8.78812C65.0027 9.68019 65.7148 10.427 66.5896 10.427C67.4645 10.427 68.1969 9.68019 68.1969 8.78812ZM70.15 20.8415V20.2399H69.6414C68.441 20.2399 67.9731 19.8872 67.9731 18.7669V13.5389C67.9731 12.1282 67.2407 11.4643 66.0199 11.4643H65.2468C65.2468 11.4643 65.2468 18.3935 65.2468 19.0366C65.2468 21.2979 66.4065 22.5219 68.5224 22.5219C69.6821 22.5219 70.15 22.0448 70.15 20.8415Z" fill="black"/>
<path d="M80.567 12.5431C80.567 11.6303 80.2211 11.2154 79.2852 11.2154H78.1256C77.7187 14.0161 76.7624 16.9828 75.7248 19.0781C74.5651 16.7753 74.0158 14.6177 73.6292 12.5431C73.5275 11.9415 72.9375 11.2154 72.0016 11.2154H70.5368C70.7809 14.2443 72.6527 19.1196 74.1379 21.4224C74.6872 22.2522 75.1145 22.5427 75.9283 22.5427H76.4572C77.678 20.8415 78.8987 18.1445 79.6311 16.0907C80.3025 14.2235 80.567 12.8751 80.567 12.5431Z" fill="black"/>
<path d="M91.4436 15.3023C91.4436 12.6261 89.3277 10.9664 87.049 10.9664C83.9159 10.9664 81.6779 13.3107 81.6779 17.045C81.6779 20.4681 84.3431 22.6671 87.0694 22.6671C90.0805 22.6671 91.0367 21.5676 91.0367 20.1361V19.2648H90.935C90.0601 20.0946 88.7174 20.3228 87.578 20.3228C85.9707 20.3228 84.7093 19.4308 84.5059 18.02H86.2963C89.9177 18.02 91.4436 17.3562 91.4436 15.3023ZM88.8801 14.9704C88.8801 15.7587 88.2901 16.0492 85.7062 16.0492H84.4855L84.5059 15.6758C84.5669 14.3895 85.4824 13.29 86.8049 13.29C88.0663 13.29 88.8801 13.8501 88.8801 14.9704Z" fill="black"/>
<path d="M107.923 9.09932V8.20724H98.564C97.4246 8.20724 96.8753 9.07857 96.8753 9.76319V10.6968H100.883V20.5096C100.883 21.7751 101.595 22.4182 102.572 22.4182H103.691V10.6968H106.254C107.17 10.6968 107.923 9.78393 107.923 9.09932Z" fill="black"/>
<path d="M118.638 15.3023C118.638 12.6261 116.523 10.9665 114.244 10.9665C111.111 10.9665 108.873 13.3107 108.873 17.045C108.873 20.4681 111.538 22.6671 114.264 22.6671C117.275 22.6671 118.232 21.5676 118.232 20.1361V19.2648H118.13C117.255 20.0947 115.912 20.3229 114.773 20.3229C113.166 20.3229 111.904 19.4308 111.701 18.0201H113.491C117.113 18.0201 118.638 17.3562 118.638 15.3023ZM116.075 14.9704C116.075 15.7588 115.485 16.0492 112.901 16.0492H111.68L111.701 15.6758C111.762 14.3895 112.677 13.29 114 13.29C115.261 13.29 116.075 13.8501 116.075 14.9704Z" fill="black"/>
<path d="M129.332 18.6009V16.0285C129.332 12.1697 127.135 11.0079 124.694 11.0079C121.804 11.0079 120.706 12.5016 120.706 13.7464V14.6385H120.808C121.214 14.1198 122.313 13.3522 124.287 13.3522C125.914 13.3522 126.647 13.8294 126.647 15.4061V15.5513H125.69C121.662 15.5513 120.238 17.0658 120.238 19.0574C120.238 21.1112 122.028 22.6049 124.632 22.6049H125.182C127.623 22.6049 129.332 20.966 129.332 18.6009ZM126.667 18.6217C126.667 19.7627 126.097 20.3436 124.917 20.3436C123.717 20.3436 123.025 19.825 123.025 18.9536C123.025 18.0408 123.615 17.5429 125.69 17.5429H126.667V18.6217Z" fill="black"/>
<path d="M147.446 22.4182V15.6965C147.446 12.5224 145.411 10.9665 142.888 10.9665C141.566 10.9665 140.365 11.6718 139.735 12.7091C138.941 11.6303 137.822 10.9665 136.398 10.9665C133.082 10.9665 131.515 12.9996 131.515 16.0492V20.3851C131.515 21.6713 132.37 22.4182 133.489 22.4182H134.221V15.821C134.221 14.2858 135.015 13.4352 136.073 13.4352C137.273 13.4352 138.107 14.2236 138.107 16.0699V20.3851C138.107 21.7128 138.901 22.4182 140.101 22.4182H140.833V15.7588C140.833 14.2236 141.586 13.4352 142.685 13.4352C143.885 13.4352 144.699 14.2236 144.699 16.0699V20.3851C144.699 21.7128 145.289 22.4182 146.774 22.4182H147.446Z" fill="black"/>
<path d="M157.986 18.8914C157.986 17.1072 156.765 16.0907 154.486 15.7173C152.615 15.4061 152.289 15.1779 152.289 14.6177C152.289 13.8916 152.818 13.373 154.486 13.373C155.788 13.373 157.05 13.8294 157.62 14.4103H157.721V13.3522C157.721 12.2734 156.704 10.9665 154.222 10.9665C151.414 10.9665 149.563 12.7506 149.563 14.8459C149.563 16.5471 150.682 17.4807 153.001 17.8126C154.893 18.0823 155.28 18.3935 155.28 19.0366C155.28 19.8664 154.629 20.2606 153.286 20.2606C151.984 20.2606 150.58 19.7627 149.99 19.2026H149.888V20.4681C149.888 21.6091 151.394 22.6671 153.408 22.6671C156.358 22.6671 157.986 21.2564 157.986 18.8914Z" fill="black"/>
</svg>
