<svg width="229" height="41" viewBox="0 0 229 41" fill="none" xmlns="http://www.w3.org/2000/svg">
<path d="M23.8887 6.28525C23.8887 5.05108 23.5184 3.82951 22.8288 2.79684C22.1393 1.76416 21.1688 0.958178 20.0196 0.479623C18.8831 0.0136619 17.6189 -0.09968 16.393 0.139597C15.1799 0.391468 14.0562 0.995959 13.1879 1.87751C12.5239 2.53237 12.0259 3.32576 11.7066 4.19472C11.3874 5.06367 11.2725 5.9956 11.3618 6.92752C11.4512 7.84685 11.7449 8.74099 12.2302 9.53438C12.7154 10.3278 13.3539 11.0078 14.1328 11.5242C14.9884 12.0909 15.9716 12.4435 16.9932 12.5442C18.0148 12.645 19.0491 12.4939 20.0068 12.1035C20.773 11.776 21.4625 11.3101 22.0371 10.7056C23.2247 9.53438 23.8887 7.935 23.8887 6.28525Z" fill="#5152FB"/>
<path d="M3.85327 16.2468L15.0266 35.5905C16.4312 38.0714 18.8063 38.0714 20.2238 35.5905L25.1272 27.0773C18.1423 28.7774 7.81181 23.0977 3.85327 16.2468Z" fill="#FDBC42"/>
<path d="M32.8023 6.28467C30.4144 6.28467 27.5029 8.42557 26.3281 11.045C26.3281 11.045 23.6082 17.1277 17.6194 17.1277C15.5635 17.1277 13.5714 16.3847 12.0135 15.0372C13.98 17.4174 20.684 22.5681 30.5931 17.6189L34.5261 10.8183C35.9691 8.31223 35.1774 6.28467 32.8023 6.28467Z" fill="#5152FB"/>
<path d="M12.0131 15.0257C10.7234 13.9175 9.66349 12.5574 8.92286 11.0336C7.74807 8.4141 4.83662 6.27319 2.4615 6.27319C0.0608358 6.28579 -0.718103 8.31335 0.724849 10.8069L3.85337 16.2347C7.81191 23.0856 18.1424 28.7779 25.1529 27.0651L30.6054 17.62C20.6708 22.5692 13.9796 17.4185 12.0131 15.0257Z" fill="#FA4769"/>
<path d="M62.6594 31.6562V13.9086C62.6594 12.62 61.4799 11.5949 60.4478 11.5949H58.6491V25.4182C58.3542 24.7446 57.8824 23.5439 57.4695 22.7238L53.931 15.6951C52.5746 13.0007 50.8643 11.5949 48.2104 11.5949H46.2052V29.0204C46.2052 30.7776 47.4732 31.6562 48.6527 31.6562H50.245V16.8958C50.5989 17.3644 51.0412 18.1258 51.6015 19.2387L55.2874 26.3554C57.7939 31.1876 59.5042 31.6562 61.0671 31.6562H62.6594Z" fill="white"/>
<path d="M78.9802 26.2675V22.636C78.9802 17.1887 75.7955 15.5486 72.257 15.5486C68.0697 15.5486 66.4774 17.6573 66.4774 19.4145V20.6738H66.6248C67.2146 19.9416 68.8069 18.858 71.6672 18.858C74.0263 18.858 75.0878 19.5316 75.0878 21.7574V21.9624H73.7019C67.8633 21.9624 65.7992 24.1003 65.7992 26.9118C65.7992 29.8112 68.3941 31.9198 72.1685 31.9198H72.9647C76.5032 31.9198 78.9802 29.6062 78.9802 26.2675ZM75.1173 26.2968C75.1173 27.9075 74.2916 28.7276 72.5814 28.7276C70.8416 28.7276 69.839 27.9954 69.839 26.7654C69.839 25.4768 70.6941 24.7739 73.7019 24.7739H75.1173V26.2968Z" fill="white"/>
<path d="M82.2621 16.4858V25.9746C82.2621 29.6647 84.2083 31.8319 88.2186 31.8319C90.5187 31.8319 91.6982 30.8069 91.6982 29.1962V27.7904H91.5508C90.9315 28.1711 89.9584 28.3468 88.6904 28.3468C87.0981 28.3468 86.184 27.5561 86.184 25.5061V19.3266H89.3392C90.961 19.3266 91.6982 18.2723 91.6982 17.4523V15.8415H86.184V12.2685H85.2699C84.6506 12.2685 83.9429 12.7371 83.4121 13.3521C82.557 14.3479 82.2621 14.9336 82.2621 16.4858Z" fill="white"/>
<path d="M98.8423 12.415C98.8423 11.1556 97.7808 10.1306 96.5128 10.1306C95.2448 10.1306 94.2127 11.1556 94.2127 12.415C94.2127 13.6743 95.2448 14.7286 96.5128 14.7286C97.7808 14.7286 98.8423 13.6743 98.8423 12.415ZM101.673 29.4305V28.5811H100.936C99.1962 28.5811 98.518 28.0833 98.518 26.5018V19.1216C98.518 17.1301 97.4564 16.1929 95.6871 16.1929H94.5666C94.5666 16.1929 94.5666 25.9746 94.5666 26.8825C94.5666 30.0748 96.2474 31.8027 99.3141 31.8027C100.995 31.8027 101.673 31.1291 101.673 29.4305Z" fill="white"/>
<path d="M116.771 17.7158C116.771 16.4272 116.27 15.8415 114.913 15.8415H113.233C112.643 19.7952 111.257 23.9832 109.753 26.9411C108.072 23.6903 107.276 20.6445 106.716 17.7158C106.568 16.8665 105.713 15.8415 104.357 15.8415H102.234C102.588 20.1173 105.3 26.9997 107.453 30.2505C108.249 31.4219 108.868 31.8319 110.048 31.8319H110.815C112.584 29.4304 114.353 25.6232 115.415 22.7238C116.388 20.088 116.771 18.1844 116.771 17.7158Z" fill="white"/>
<path d="M132.535 21.6109C132.535 17.833 129.469 15.4901 126.166 15.4901C121.625 15.4901 118.381 18.7994 118.381 24.071C118.381 28.9033 122.244 32.0077 126.195 32.0077C130.56 32.0077 131.946 30.4555 131.946 28.4347V27.2047H131.798C130.53 28.3761 128.584 28.6983 126.933 28.6983C124.603 28.6983 122.775 27.439 122.48 25.4475H125.075C130.324 25.4475 132.535 24.5103 132.535 21.6109ZM128.82 21.1424C128.82 22.2552 127.965 22.6653 124.22 22.6653H122.451L122.48 22.1381C122.568 20.3223 123.895 18.7701 125.812 18.7701C127.64 18.7701 128.82 19.5609 128.82 21.1424Z" fill="white"/>
<path d="M156.42 12.854V11.5947H142.855C141.204 11.5947 140.408 12.8248 140.408 13.7912V15.1091H146.217V28.9616C146.217 30.7481 147.249 31.656 148.665 31.656H150.286V15.1091H154.002C155.329 15.1091 156.42 13.8205 156.42 12.854Z" fill="white"/>
<path d="M171.951 21.6107C171.951 17.8328 168.884 15.4898 165.581 15.4898C161.04 15.4898 157.797 18.7992 157.797 24.0708C157.797 28.9031 161.659 32.0074 165.611 32.0074C169.975 32.0074 171.361 30.4553 171.361 28.4345V27.2045H171.214C169.946 28.3759 167.999 28.6981 166.348 28.6981C164.018 28.6981 162.19 27.4387 161.895 25.4473H164.49C169.739 25.4473 171.951 24.5101 171.951 21.6107ZM168.235 21.1421C168.235 22.255 167.38 22.665 163.635 22.665H161.866L161.895 22.1379C161.984 20.3221 163.311 18.7699 165.227 18.7699C167.056 18.7699 168.235 19.5607 168.235 21.1421Z" fill="white"/>
<path d="M187.45 26.2673V22.6358C187.45 17.1885 184.265 15.5484 180.727 15.5484C176.54 15.5484 174.947 17.657 174.947 19.4142V20.6736H175.095C175.684 19.9414 177.277 18.8578 180.137 18.8578C182.496 18.8578 183.558 19.5314 183.558 21.7572V21.9622H182.172C176.333 21.9622 174.269 24.1001 174.269 26.9116C174.269 29.811 176.864 31.9196 180.638 31.9196H181.434C184.973 31.9196 187.45 29.606 187.45 26.2673ZM183.587 26.2966C183.587 27.9073 182.761 28.7274 181.051 28.7274C179.311 28.7274 178.309 27.9952 178.309 26.7652C178.309 25.4765 179.164 24.7737 182.172 24.7737H183.587V26.2966Z" fill="white"/>
<path d="M213.703 31.656V22.1672C213.703 17.6863 210.754 15.4898 207.098 15.4898C205.181 15.4898 203.441 16.4856 202.527 17.9499C201.377 16.427 199.755 15.4898 197.691 15.4898C192.884 15.4898 190.614 18.3599 190.614 22.665V28.7859C190.614 30.6017 191.852 31.656 193.474 31.656H194.536V22.3429C194.536 20.1757 195.686 18.9749 197.219 18.9749C198.959 18.9749 200.168 20.0878 200.168 22.6943V28.7859C200.168 30.6603 201.318 31.656 203.058 31.656H204.119V22.255C204.119 20.0878 205.21 18.9749 206.803 18.9749C208.543 18.9749 209.722 20.0878 209.722 22.6943V28.7859C209.722 30.6603 210.577 31.656 212.73 31.656H213.703Z" fill="white"/>
<path d="M228.979 26.6773C228.979 24.1587 227.21 22.7236 223.908 22.1965C221.195 21.7572 220.723 21.435 220.723 20.6443C220.723 19.6192 221.49 18.8871 223.908 18.8871C225.795 18.8871 227.623 19.5314 228.449 20.3514H228.596V18.8578C228.596 17.3349 227.122 15.4898 223.524 15.4898C219.455 15.4898 216.771 18.0085 216.771 20.9664C216.771 23.3679 218.393 24.6858 221.755 25.1544C224.497 25.5351 225.058 25.9744 225.058 26.8823C225.058 28.0538 224.114 28.6102 222.168 28.6102C220.281 28.6102 218.246 27.9073 217.391 27.1166H217.243V28.9031C217.243 30.5138 219.425 32.0074 222.345 32.0074C226.62 32.0074 228.979 30.016 228.979 26.6773Z" fill="white"/>
</svg>
