<svg width="143" height="143" viewBox="0 0 143 143" fill="none" xmlns="http://www.w3.org/2000/svg">
<path d="M92.345 29.6963C92.345 25.5549 91.1108 21.4556 88.8127 17.9903C86.5146 14.525 83.2802 11.8203 79.4499 10.2145C75.6623 8.65083 71.449 8.27049 67.3635 9.07343C63.3204 9.91864 59.5754 11.9471 56.6814 14.9053C54.4684 17.1028 52.8086 19.7652 51.7447 22.6812C50.6807 25.5971 50.2977 28.7244 50.5956 31.8516C50.8935 34.9366 51.8724 37.937 53.4896 40.5994C55.1068 43.2618 57.2347 45.5439 59.8307 47.2765C62.6821 49.1782 65.959 50.3615 69.3637 50.6996C72.7683 51.0377 76.2155 50.5305 79.4074 49.2205C81.9609 48.1217 84.259 46.5581 86.1741 44.5296C90.132 40.5994 92.345 35.2324 92.345 29.6963Z" fill="#5152FB"/>
<path d="M25.5711 63.1243L62.8093 128.036C67.4907 136.361 75.4065 136.361 80.1304 128.036L96.4727 99.4679C73.1935 105.173 38.7641 86.1137 25.5711 63.1243Z" fill="#FDBC42"/>
<path d="M122.052 29.696C114.093 29.696 104.39 36.8803 100.475 45.6703C100.475 45.6703 91.4099 66.0819 71.4502 66.0819C64.5984 66.0819 57.9594 63.5886 52.7673 59.0668C59.3212 67.0539 81.6641 84.3383 114.689 67.7301L127.797 44.9097C132.606 36.4999 129.967 29.696 122.052 29.696Z" fill="#5152FB"/>
<path d="M52.7661 59.0265C48.4678 55.3076 44.9355 50.7435 42.4671 45.6301C38.5518 36.84 28.8485 29.6558 20.9328 29.6558C12.9319 29.698 10.3358 36.5019 15.1449 44.8694L25.5716 63.0835C38.7646 86.0729 73.194 105.174 96.5583 99.4271L114.731 67.7321C81.6204 84.3403 59.3201 67.0559 52.7661 59.0265Z" fill="#FA4769"/>
</svg>
